# xmcd
#
# Track frame offsets:
# 150
# 16796
# 38758
# 46556
# 72486
# 119071
# 137319
# 150122
#
# Disc length: 2306 seconds
#
# Revision: 0
# Processed by: cddbd v1.5.1PL0 Copyright (c) Steve Scherf et al.
# Submitted via: Audion 3.0.2 (http://www.panic.com/audion/)
#
DISCID=56090008
DTITLE=Muddy Waters and Rolling Stones - Sweet Home Chicago CD1
DYEAR=1900
DGENRE=
TTITLE0=Sweet Little Angel
TTITLE1=Flip Flop And Fly
TTITLE2=Introduction
TTITLE3=Down The Road I Go
TTITLE4=Country Boy
TTITLE5=I'm A King Bee
TTITLE6=Someday Baby
TTITLE7=Country Jail
EXTD=
EXTT0=
EXTT1=
EXTT2=
EXTT3=
EXTT4=
EXTT5=
EXTT6=
EXTT7=
PLAYORDER=
